<?xml version="1.0" encoding="UTF-8"?>
<!DOCTYPE svg PUBLIC "-//W3C//DTD SVG 1.1//EN" "http://www.w3.org/Graphics/SVG/1.1/DTD/svg11.dtd">
<svg xmlns="http://www.w3.org/2000/svg" version="1.1" width="290px" height="101px" style="shape-rendering:geometricPrecision; text-rendering:geometricPrecision; image-rendering:optimizeQuality; fill-rule:evenodd; clip-rule:evenodd" xmlns:xlink="http://www.w3.org/1999/xlink">
<g><path style="opacity:1" fill="#111e3a" d="M -0.5,-0.5 C 64.1667,-0.5 128.833,-0.5 193.5,-0.5C 193.5,5.5 193.5,11.5 193.5,17.5C 199.5,17.5 205.5,17.5 211.5,17.5C 211.5,14.5 211.5,11.5 211.5,8.5C 217.5,8.5 223.5,8.5 229.5,8.5C 229.274,16.0764 229.94,23.5764 231.5,31C 231.333,32.8333 231.167,34.6667 231,36.5C 230.722,35.5842 230.222,34.9175 229.5,34.5C 229.5,33.8333 229.167,33.5 228.5,33.5C 227.631,31.283 227.298,28.9496 227.5,26.5C 226.5,26.5 225.5,26.5 224.5,26.5C 222.703,32.2684 222.036,38.2684 222.5,44.5C 220.436,44.313 218.436,43.813 216.5,43C 216.833,42.6667 217.167,42.3333 217.5,42C 212.777,38.0516 207.777,37.2182 202.5,39.5C 201.566,40.5676 201.232,41.901 201.5,43.5C 198.784,43.3862 196.784,44.3862 195.5,46.5C 195.5,46.8333 195.5,47.1667 195.5,47.5C 192.619,49.1905 191.619,48.6905 192.5,46C 192.265,42.044 191.265,38.544 189.5,35.5C 188.082,33.6921 186.082,33.0254 183.5,33.5C 183.5,38.1667 183.5,42.8333 183.5,47.5C 178.167,47.5 172.833,47.5 167.5,47.5C 167.817,43.2984 167.483,39.2984 166.5,35.5C 166.5,35.1667 166.5,34.8333 166.5,34.5C 165.848,33.2749 164.681,32.6083 163,32.5C 161.833,32.8333 160.667,33.1667 159.5,33.5C 158.499,36.1725 157.499,38.8392 156.5,41.5C 153.667,40.0668 150.667,39.4001 147.5,39.5C 147.5,41.1667 147.5,42.8333 147.5,44.5C 146.167,44.5 144.833,44.5 143.5,44.5C 143.5,46.1667 143.5,47.8333 143.5,49.5C 143.5,50.1667 143.167,50.5 142.5,50.5C 140.824,49.8166 140.157,48.4832 140.5,46.5C 141.794,44.9522 142.461,42.9522 142.5,40.5C 143.387,33.0664 140.387,29.733 133.5,30.5C 131.731,33.9447 129.898,37.278 128,40.5C 121.026,36.7015 114.526,37.5348 108.5,43C 109.448,43.4828 110.448,43.6495 111.5,43.5C 111.5,44.5 111.5,45.5 111.5,46.5C 109.167,46.5 106.833,46.5 104.5,46.5C 104.737,45.209 104.404,44.209 103.5,43.5C 102.346,39.6998 99.6797,37.6998 95.5,37.5C 91.8306,38.9945 88.1639,40.3279 84.5,41.5C 80.8964,41.4506 78.3964,39.784 77,36.5C 75.7508,38.9915 74.5842,38.8249 73.5,36C 74.938,35.7811 76.2713,35.2811 77.5,34.5C 78.09,33.2011 79.09,32.3678 80.5,32C 80,31.8333 79.5,31.6667 79,31.5C 76.0438,33.0614 72.8771,34.0614 69.5,34.5C 71.9276,33.2809 74.2609,31.7809 76.5,30C 72.2176,29.0349 68.2176,29.7016 64.5,32C 65.5707,32.8518 66.5707,33.6851 67.5,34.5C 65.8333,34.5 64.1667,34.5 62.5,34.5C 59.4486,34.6355 56.4486,34.3022 53.5,33.5C 51.9623,33.4534 50.9623,34.1201 50.5,35.5C 49.2223,35.7822 48.2223,36.4489 47.5,37.5C 47.7563,35.0628 48.4229,32.7294 49.5,30.5C 48.277,29.3861 46.9437,29.2195 45.5,30C 43.5676,31.3518 42.2343,33.1851 41.5,35.5C 40.4512,32.9205 39.7845,30.2538 39.5,27.5C 33.8236,27.6661 28.1569,27.4994 22.5,27C 21.5251,21.2588 21.1918,15.4254 21.5,9.5C 14.1667,9.5 6.83333,9.5 -0.5,9.5C -0.5,6.16667 -0.5,2.83333 -0.5,-0.5 Z"/></g>
<g><path style="opacity:1" fill="#111f3a" d="M 193.5,-0.5 C 225.5,-0.5 257.5,-0.5 289.5,-0.5C 289.5,33.1667 289.5,66.8333 289.5,100.5C 254.167,100.5 218.833,100.5 183.5,100.5C 183.334,94.1579 183.5,87.8246 184,81.5C 188.121,80.8612 192.287,80.1945 196.5,79.5C 194.454,77.8038 192.121,76.4705 189.5,75.5C 193.373,72.8807 197.206,73.2141 201,76.5C 202.188,75.4366 202.688,74.1033 202.5,72.5C 204.527,72.6621 206.527,72.4955 208.5,72C 209.598,71.2303 209.598,70.397 208.5,69.5C 211.417,69.6349 214.084,68.9682 216.5,67.5C 218.833,66.1667 221.167,66.1667 223.5,67.5C 223.833,67.5 224.167,67.5 224.5,67.5C 224.833,67.5 225.167,67.5 225.5,67.5C 226.5,68.8333 227.5,68.8333 228.5,67.5C 229.222,67.0825 229.722,66.4158 230,65.5C 230.5,58.5079 230.666,51.5079 230.5,44.5C 231.5,44.5 232.5,44.5 233.5,44.5C 233.619,55.5184 233.286,66.5184 232.5,77.5C 235.485,79.4451 238.818,80.4451 242.5,80.5C 243.373,76.8789 244.039,73.2122 244.5,69.5C 247.187,69.6641 249.854,69.4974 252.5,69C 253.056,68.6174 253.389,68.1174 253.5,67.5C 255.167,65.8333 256.833,64.1667 258.5,62.5C 259.117,62.3893 259.617,62.056 260,61.5C 260.828,57.1287 260.661,52.7953 259.5,48.5C 258.817,48.1373 258.15,47.8039 257.5,47.5C 257.5,46.5 257.5,45.5 257.5,44.5C 257.249,42.8297 256.582,41.3297 255.5,40C 249.616,40.0581 243.95,39.2248 238.5,37.5C 236.879,39.1526 235.712,41.1526 235,43.5C 234.02,41.9411 233.187,40.2744 232.5,38.5C 231.833,38.8333 231.167,39.1667 230.5,39.5C 229.548,37.9547 229.215,36.288 229.5,34.5C 230.222,34.9175 230.722,35.5842 231,36.5C 231.167,34.6667 231.333,32.8333 231.5,31C 229.94,23.5764 229.274,16.0764 229.5,8.5C 223.5,8.5 217.5,8.5 211.5,8.5C 211.5,11.5 211.5,14.5 211.5,17.5C 205.5,17.5 199.5,17.5 193.5,17.5C 193.5,11.5 193.5,5.5 193.5,-0.5 Z"/></g>
<g><path style="opacity:1" fill="#121d39" d="M -0.5,9.5 C 6.83333,9.5 14.1667,9.5 21.5,9.5C 21.1918,15.4254 21.5251,21.2588 22.5,27C 28.1569,27.4994 33.8236,27.6661 39.5,27.5C 39.7845,30.2538 40.4512,32.9205 41.5,35.5C 42.2343,33.1851 43.5676,31.3518 45.5,30C 46.9437,29.2195 48.277,29.3861 49.5,30.5C 48.4229,32.7294 47.7563,35.0628 47.5,37.5C 46.1711,47.9019 46.1711,58.4019 47.5,69C 51.4583,70.2694 55.4583,70.7694 59.5,70.5C 63.4893,69.8934 67.4893,69.2267 71.5,68.5C 74.7455,67.2599 76.4121,64.9266 76.5,61.5C 76.2627,60.209 76.596,59.209 77.5,58.5C 78.1667,58.1667 78.8333,57.8333 79.5,57.5C 80.8701,65.5137 85.8701,69.8471 94.5,70.5C 95.6804,73.081 96.6804,72.9143 97.5,70C 102.099,70.5515 105.265,68.7181 107,64.5C 108.382,66.4422 110.215,67.7755 112.5,68.5C 112.5,68.8333 112.5,69.1667 112.5,69.5C 112.5,70.8333 112.5,72.1667 112.5,73.5C 119.683,72.6457 126.35,73.979 132.5,77.5C 133.429,78.6888 133.762,80.0222 133.5,81.5C 135.167,81.5 136.833,81.5 138.5,81.5C 137.83,78.4096 138.997,76.743 142,76.5C 143.979,78.7635 146.479,80.0969 149.5,80.5C 149.498,76.6512 147.665,73.9845 144,72.5C 142.515,68.7202 142.348,65.0535 143.5,61.5C 145.248,64.2197 146.914,66.8863 148.5,69.5C 150.735,69.7947 152.735,69.4614 154.5,68.5C 155.833,68.5 156.5,67.8333 156.5,66.5C 157.5,66.5 158.5,66.5 159.5,66.5C 159.281,67.675 159.614,68.675 160.5,69.5C 162.059,70.0736 163.559,70.7402 165,71.5C 166.885,69.98 169.051,68.98 171.5,68.5C 172.5,68.8333 173.167,69.5 173.5,70.5C 177.511,71.2267 181.511,71.8934 185.5,72.5C 186.107,72.3764 186.44,72.0431 186.5,71.5C 188.919,69.1529 191.419,66.8196 194,64.5C 195.413,66.4127 197.246,67.746 199.5,68.5C 202.287,69.4767 205.287,69.81 208.5,69.5C 209.598,70.397 209.598,71.2303 208.5,72C 206.527,72.4955 204.527,72.6621 202.5,72.5C 202.688,74.1033 202.188,75.4366 201,76.5C 197.206,73.2141 193.373,72.8807 189.5,75.5C 192.121,76.4705 194.454,77.8038 196.5,79.5C 192.287,80.1945 188.121,80.8612 184,81.5C 183.5,87.8246 183.334,94.1579 183.5,100.5C 122.167,100.5 60.8333,100.5 -0.5,100.5C -0.5,70.1667 -0.5,39.8333 -0.5,9.5 Z"/></g>
<g><path style="opacity:1" fill="#062a35" d="M 228.5,33.5 C 228.167,33.5 227.833,33.5 227.5,33.5C 226.5,33.5 225.5,33.5 224.5,33.5C 224.5,44.8333 224.5,56.1667 224.5,67.5C 224.167,67.5 223.833,67.5 223.5,67.5C 222.566,59.889 222.233,52.2223 222.5,44.5C 222.036,38.2684 222.703,32.2684 224.5,26.5C 225.5,26.5 226.5,26.5 227.5,26.5C 227.298,28.9496 227.631,31.283 228.5,33.5 Z"/></g>
<g><path style="opacity:1" fill="#0a2134" d="M 140.5,46.5 C 141.937,41.9346 141.604,37.6013 139.5,33.5C 137.265,33.2053 135.265,33.5386 133.5,34.5C 132.521,37.6248 132.187,40.9581 132.5,44.5C 128.797,45.8287 126.464,44.4953 125.5,40.5C 121.119,40.3718 116.785,40.7051 112.5,41.5C 112.5,42.8333 112.5,44.1667 112.5,45.5C 112.5,46.1667 112.167,46.5 111.5,46.5C 111.5,45.5 111.5,44.5 111.5,43.5C 110.448,43.6495 109.448,43.4828 108.5,43C 114.526,37.5348 121.026,36.7015 128,40.5C 129.898,37.278 131.731,33.9447 133.5,30.5C 140.387,29.733 143.387,33.0664 142.5,40.5C 142.461,42.9522 141.794,44.9522 140.5,46.5 Z"/></g>
<g><path style="opacity:1" fill="#1b193c" d="M 69.5,34.5 C 68.8333,34.5 68.1667,34.5 67.5,34.5C 66.5707,33.6851 65.5707,32.8518 64.5,32C 68.2176,29.7016 72.2176,29.0349 76.5,30C 74.2609,31.7809 71.9276,33.2809 69.5,34.5 Z"/></g>
<g><path style="opacity:1" fill="#003231" d="M 62.5,34.5 C 62.5,34.8333 62.5,35.1667 62.5,35.5C 58.5,35.5 54.5,35.5 50.5,35.5C 50.9623,34.1201 51.9623,33.4534 53.5,33.5C 56.4486,34.3022 59.4486,34.6355 62.5,34.5 Z"/></g>
<g><path style="opacity:1" fill="#0a383a" d="M 68.5,36.5 C 69.8734,36.3433 71.2068,36.51 72.5,37C 73.5046,38.5067 74.838,39.6733 76.5,40.5C 77.2458,41.7362 77.5792,43.0695 77.5,44.5C 76.6091,43.7387 75.9424,42.7387 75.5,41.5C 74.675,40.6143 73.675,40.281 72.5,40.5C 72.0269,39.0937 71.0269,38.427 69.5,38.5C 69.1667,37.8333 68.8333,37.1667 68.5,36.5 Z"/></g>
<g><path style="opacity:1" fill="#03272e" d="M 139.5,33.5 C 141.604,37.6013 141.937,41.9346 140.5,46.5C 140.157,48.4832 140.824,49.8166 142.5,50.5C 141.89,51.391 141.557,52.391 141.5,53.5C 141.167,53.5 140.833,53.5 140.5,53.5C 139.512,48.3595 139.179,43.0262 139.5,37.5C 139.5,36.1667 139.5,34.8333 139.5,33.5 Z"/></g>
<g><path style="opacity:1" fill="#388b7f" d="M 50.5,36.5 C 50.5,36.1667 50.5,35.8333 50.5,35.5C 54.5,35.5 58.5,35.5 62.5,35.5C 64.4352,36.1495 66.4352,36.4828 68.5,36.5C 68.8333,37.1667 69.1667,37.8333 69.5,38.5C 68.1266,38.3433 66.7932,38.51 65.5,39C 66.056,39.3826 66.3893,39.8826 66.5,40.5C 63.2356,39.6758 59.9023,39.3424 56.5,39.5C 56.5,38.5 56.5,37.5 56.5,36.5C 54.5,36.5 52.5,36.5 50.5,36.5 Z"/></g>
<g><path style="opacity:1" fill="#419d88" d="M 135.5,34.5 C 136.5,34.5 137.5,34.5 138.5,34.5C 138.5,35.5 138.5,36.5 138.5,37.5C 138.5,43.1667 138.5,48.8333 138.5,54.5C 138.098,51.5234 137.098,48.8567 135.5,46.5C 135.5,42.5 135.5,38.5 135.5,34.5 Z"/></g>
<g><path style="opacity:1" fill="#1f4f50" d="M 56.5,39.5 C 59.9023,39.3424 63.2356,39.6758 66.5,40.5C 67.1667,40.5 67.5,40.8333 67.5,41.5C 67.5,41.8333 67.5,42.1667 67.5,42.5C 66.8333,42.5 66.1667,42.5 65.5,42.5C 65.0825,41.7784 64.4158,41.2784 63.5,41C 60.854,40.5026 58.1873,40.3359 55.5,40.5C 55.5,47.8333 55.5,55.1667 55.5,62.5C 58.5,62.5 61.5,62.5 64.5,62.5C 61.3752,63.4794 58.0419,63.8128 54.5,63.5C 53.8665,55.0968 54.5332,47.0968 56.5,39.5 Z"/></g>
<g><path style="opacity:1" fill="#092734" d="M 202.5,39.5 C 208.098,38.3721 212.431,40.0388 215.5,44.5C 214.833,44.5 214.167,44.5 213.5,44.5C 208.658,42.9283 203.991,43.2616 199.5,45.5C 198.041,45.4326 196.708,45.7659 195.5,46.5C 196.784,44.3862 198.784,43.3862 201.5,43.5C 201.232,41.901 201.566,40.5676 202.5,39.5 Z"/></g>
<g><path style="opacity:1" fill="#36a78f" d="M 69.5,38.5 C 71.0269,38.427 72.0269,39.0937 72.5,40.5C 71.0813,41.4511 69.4147,41.7845 67.5,41.5C 67.5,40.8333 67.1667,40.5 66.5,40.5C 66.3893,39.8826 66.056,39.3826 65.5,39C 66.7932,38.51 68.1266,38.3433 69.5,38.5 Z"/></g>
<g><path style="opacity:1" fill="#0f2339" d="M 103.5,43.5 C 102.167,43.5 100.833,43.5 99.5,43.5C 95.6286,43.185 91.9619,43.5184 88.5,44.5C 83.4455,45.2514 81.4455,48.2514 82.5,53.5C 81.5,53.5 80.5,53.5 79.5,53.5C 79.6633,51.1432 79.4966,48.8098 79,46.5C 78.6174,45.944 78.1174,45.6107 77.5,45.5C 77.5,45.1667 77.5,44.8333 77.5,44.5C 77.5792,43.0695 77.2458,41.7362 76.5,40.5C 74.838,39.6733 73.5046,38.5067 72.5,37C 71.2068,36.51 69.8734,36.3433 68.5,36.5C 66.4352,36.4828 64.4352,36.1495 62.5,35.5C 62.5,35.1667 62.5,34.8333 62.5,34.5C 64.1667,34.5 65.8333,34.5 67.5,34.5C 68.1667,34.5 68.8333,34.5 69.5,34.5C 72.8771,34.0614 76.0438,33.0614 79,31.5C 79.5,31.6667 80,31.8333 80.5,32C 79.09,32.3678 78.09,33.2011 77.5,34.5C 76.2713,35.2811 74.938,35.7811 73.5,36C 74.5842,38.8249 75.7508,38.9915 77,36.5C 78.3964,39.784 80.8964,41.4506 84.5,41.5C 88.1639,40.3279 91.8306,38.9945 95.5,37.5C 99.6797,37.6998 102.346,39.6998 103.5,43.5 Z"/></g>
<g><path style="opacity:1" fill="#042c37" d="M 133.5,34.5 C 133.5,44.8333 133.5,55.1667 133.5,65.5C 132.566,64.4324 132.232,63.099 132.5,61.5C 132.5,56.5 132.5,51.5 132.5,46.5C 130.486,46.3915 128.82,47.0582 127.5,48.5C 127.912,46.0274 126.912,44.6941 124.5,44.5C 120.438,42.8243 116.771,43.1576 113.5,45.5C 113.167,45.5 112.833,45.5 112.5,45.5C 112.5,44.1667 112.5,42.8333 112.5,41.5C 116.785,40.7051 121.119,40.3718 125.5,40.5C 126.464,44.4953 128.797,45.8287 132.5,44.5C 132.187,40.9581 132.521,37.6248 133.5,34.5 Z"/></g>
<g><path style="opacity:1" fill="#0a2033" d="M 166.5,34.5 C 164.208,34.2436 162.041,34.5769 160,35.5C 160.52,44.6592 160.353,53.6592 159.5,62.5C 159.11,59.1606 158.61,55.8273 158,52.5C 156.871,50.8588 155.371,49.8588 153.5,49.5C 154.237,47.6954 155.237,46.0287 156.5,44.5C 155.167,44.1667 153.833,43.8333 152.5,43.5C 150.667,43.5854 149.334,44.2521 148.5,45.5C 147.167,45.5 145.833,45.5 144.5,45.5C 144.5,46.8333 144.5,48.1667 144.5,49.5C 144.167,49.5 143.833,49.5 143.5,49.5C 143.5,47.8333 143.5,46.1667 143.5,44.5C 144.833,44.5 146.167,44.5 147.5,44.5C 147.5,42.8333 147.5,41.1667 147.5,39.5C 150.667,39.4001 153.667,40.0668 156.5,41.5C 157.499,38.8392 158.499,36.1725 159.5,33.5C 160.667,33.1667 161.833,32.8333 163,32.5C 164.681,32.6083 165.848,33.2749 166.5,34.5 Z"/></g>
<g><path style="opacity:1" fill="#388f81" d="M 188.5,35.5 C 188.5,42.8333 188.5,50.1667 188.5,57.5C 187.833,50.6553 187.167,43.6553 186.5,36.5C 185.833,40.9822 185.166,45.3155 184.5,49.5C 184.5,44.8333 184.5,40.1667 184.5,35.5C 185.833,35.5 187.167,35.5 188.5,35.5 Z"/></g>
<g><path style="opacity:1" fill="#052d36" d="M 257.5,44.5 C 257.5,45.5 257.5,46.5 257.5,47.5C 253.494,44.0741 248.827,42.7407 243.5,43.5C 242.5,43.5 241.5,43.5 240.5,43.5C 243.55,40.6465 247.217,39.8132 251.5,41C 253.388,42.3937 255.388,43.5604 257.5,44.5 Z"/></g>
<g><path style="opacity:1" fill="#144746" d="M 236.5,44.5 C 237.568,43.5655 238.901,43.2322 240.5,43.5C 241.5,43.5 242.5,43.5 243.5,43.5C 242.738,45.2624 241.404,46.2624 239.5,46.5C 239.179,44.9519 238.179,44.2852 236.5,44.5 Z"/></g>
<g><path style="opacity:1" fill="#002d30" d="M 50.5,35.5 C 50.5,35.8333 50.5,36.1667 50.5,36.5C 49.506,46.3194 49.1726,56.3194 49.5,66.5C 48.6252,56.998 47.9585,47.3313 47.5,37.5C 48.2223,36.4489 49.2223,35.7822 50.5,35.5 Z"/></g>
<g><path style="opacity:1" fill="#11494a" d="M 213.5,44.5 C 214.167,44.5 214.833,44.5 215.5,44.5C 216.11,45.391 216.443,46.391 216.5,47.5C 215.167,46.8333 214.167,45.8333 213.5,44.5 Z"/></g>
<g><path style="opacity:1" fill="#0b2837" d="M 228.5,33.5 C 229.167,33.5 229.5,33.8333 229.5,34.5C 229.215,36.288 229.548,37.9547 230.5,39.5C 231.167,39.1667 231.833,38.8333 232.5,38.5C 233.187,40.2744 234.02,41.9411 235,43.5C 235.712,41.1526 236.879,39.1526 238.5,37.5C 243.95,39.2248 249.616,40.0581 255.5,40C 256.582,41.3297 257.249,42.8297 257.5,44.5C 255.388,43.5604 253.388,42.3937 251.5,41C 247.217,39.8132 243.55,40.6465 240.5,43.5C 238.901,43.2322 237.568,43.5655 236.5,44.5C 236.5,54.1667 236.5,63.8333 236.5,73.5C 236.5,74.5 236.5,75.5 236.5,76.5C 236.917,77.1239 237.584,77.4573 238.5,77.5C 239.713,77.2528 240.38,76.5862 240.5,75.5C 241.15,75.1961 241.817,74.8627 242.5,74.5C 243.17,72.7086 243.837,71.0419 244.5,69.5C 244.039,73.2122 243.373,76.8789 242.5,80.5C 238.818,80.4451 235.485,79.4451 232.5,77.5C 233.286,66.5184 233.619,55.5184 233.5,44.5C 232.5,44.5 231.5,44.5 230.5,44.5C 230.666,51.5079 230.5,58.5079 230,65.5C 229.722,66.4158 229.222,67.0825 228.5,67.5C 228.5,56.1667 228.5,44.8333 228.5,33.5 Z"/></g>
<g><path style="opacity:1" fill="#389984" d="M 124.5,44.5 C 123.129,45.7868 121.295,46.4535 119,46.5C 116.967,46.4944 115.134,46.1611 113.5,45.5C 116.771,43.1576 120.438,42.8243 124.5,44.5 Z"/></g>
<g><path style="opacity:1" fill="#247063" d="M 138.5,37.5 C 138.833,37.5 139.167,37.5 139.5,37.5C 139.179,43.0262 139.512,48.3595 140.5,53.5C 140.158,54.3382 139.492,54.6716 138.5,54.5C 138.5,48.8333 138.5,43.1667 138.5,37.5 Z"/></g>
<g><path style="opacity:1" fill="#023636" d="M 148.5,45.5 C 147.5,46.8333 146.5,48.1667 145.5,49.5C 145.167,49.5 144.833,49.5 144.5,49.5C 144.5,48.1667 144.5,46.8333 144.5,45.5C 145.833,45.5 147.167,45.5 148.5,45.5 Z"/></g>
<g><path style="opacity:1" fill="#3d9583" d="M 149.5,51.5 C 148.5,52.1667 147.5,52.8333 146.5,53.5C 146.539,52.4168 146.873,51.4168 147.5,50.5C 147.043,49.7025 146.376,49.3691 145.5,49.5C 146.5,48.1667 147.5,46.8333 148.5,45.5C 150.402,44.4891 152.402,44.3224 154.5,45C 153.001,47.3279 151.334,49.4946 149.5,51.5 Z"/></g>
<g><path style="opacity:1" fill="#388c81" d="M 99.5,43.5 C 102.139,45.309 104.306,47.6424 106,50.5C 106.789,52.7116 106.622,54.7116 105.5,56.5C 105.565,53.5285 104.731,50.8618 103,48.5C 102.998,51.0512 102.164,53.0512 100.5,54.5C 100.5,54.1667 100.5,53.8333 100.5,53.5C 101.283,49.7526 99.4493,47.7526 95,47.5C 93.7441,47.6483 92.5774,47.9816 91.5,48.5C 91.1667,48.5 90.8333,48.5 90.5,48.5C 91.347,47.0337 92.6803,46.2004 94.5,46C 92.5273,45.5045 90.5273,45.3379 88.5,45.5C 88.5,45.1667 88.5,44.8333 88.5,44.5C 91.9619,43.5184 95.6286,43.185 99.5,43.5 Z"/></g>
<g><path style="opacity:1" fill="#0a272e" d="M 99.5,43.5 C 100.833,43.5 102.167,43.5 103.5,43.5C 104.404,44.209 104.737,45.209 104.5,46.5C 106.833,46.5 109.167,46.5 111.5,46.5C 111.179,47.8175 110.846,49.1508 110.5,50.5C 111.187,52.1772 111.854,53.8439 112.5,55.5C 111.185,54.5244 109.852,53.5244 108.5,52.5C 107.999,54.6551 106.999,56.3218 105.5,57.5C 105.5,57.1667 105.5,56.8333 105.5,56.5C 106.622,54.7116 106.789,52.7116 106,50.5C 104.306,47.6424 102.139,45.309 99.5,43.5 Z"/></g>
<g><path style="opacity:1" fill="#072e37" d="M 189.5,35.5 C 189.167,35.5 188.833,35.5 188.5,35.5C 187.167,35.5 185.833,35.5 184.5,35.5C 184.5,40.1667 184.5,44.8333 184.5,49.5C 178.31,49.8229 172.31,49.4896 166.5,48.5C 166.5,44.1667 166.5,39.8333 166.5,35.5C 167.483,39.2984 167.817,43.2984 167.5,47.5C 172.833,47.5 178.167,47.5 183.5,47.5C 183.5,42.8333 183.5,38.1667 183.5,33.5C 186.082,33.0254 188.082,33.6921 189.5,35.5 Z"/></g>
<g><path style="opacity:1" fill="#206e63" d="M 227.5,33.5 C 227.5,33.8333 227.5,34.1667 227.5,34.5C 225.524,44.7809 224.857,55.4476 225.5,66.5C 225.5,66.8333 225.5,67.1667 225.5,67.5C 225.167,67.5 224.833,67.5 224.5,67.5C 224.5,56.1667 224.5,44.8333 224.5,33.5C 225.5,33.5 226.5,33.5 227.5,33.5 Z"/></g>
<g><path style="opacity:1" fill="#103a3e" d="M 116.5,48.5 C 120.006,47.502 123.672,47.502 127.5,48.5C 124.006,49.3352 120.34,49.3352 116.5,48.5 Z"/></g>
<g><path style="opacity:1" fill="#123742" d="M 153.5,49.5 C 152.533,50.8062 151.199,51.4729 149.5,51.5C 151.334,49.4946 153.001,47.3279 154.5,45C 152.402,44.3224 150.402,44.4891 148.5,45.5C 149.334,44.2521 150.667,43.5854 152.5,43.5C 153.833,43.8333 155.167,44.1667 156.5,44.5C 155.237,46.0287 154.237,47.6954 153.5,49.5 Z"/></g>
<g><path style="opacity:1" fill="#38887c" d="M 213.5,44.5 C 214.167,45.8333 215.167,46.8333 216.5,47.5C 218.874,50.2518 219.541,53.2518 218.5,56.5C 218.009,53.9897 217.009,51.6564 215.5,49.5C 214.702,49.9569 214.369,50.6236 214.5,51.5C 212.155,47.317 208.821,45.9837 204.5,47.5C 200.907,48.4298 199.241,50.7632 199.5,54.5C 198.849,53.9094 198.182,53.2427 197.5,52.5C 196.516,55.4281 196.183,58.4281 196.5,61.5C 194.52,55.6407 195.52,50.3074 199.5,45.5C 203.991,43.2616 208.658,42.9283 213.5,44.5 Z"/></g>
<g><path style="opacity:1" fill="#032c31" d="M 67.5,42.5 C 70.091,43.2543 71.9243,44.921 73,47.5C 73.8075,51.0267 73.6408,54.3601 72.5,57.5C 71.0937,57.9731 70.427,58.9731 70.5,60.5C 69.2223,60.7822 68.2223,61.4489 67.5,62.5C 66.5,62.5 65.5,62.5 64.5,62.5C 64.5,62.1667 64.5,61.8333 64.5,61.5C 65.5,61.5 66.5,61.5 67.5,61.5C 68.339,58.3128 69.6724,55.3128 71.5,52.5C 70.1844,49.1959 68.8511,45.8625 67.5,42.5 Z"/></g>
<g><path style="opacity:1" fill="#0b2738" d="M 100.5,53.5 C 96.8333,53.5 93.1667,53.5 89.5,53.5C 89.3915,51.4862 90.0582,49.8195 91.5,48.5C 92.5774,47.9816 93.7441,47.6483 95,47.5C 99.4493,47.7526 101.283,49.7526 100.5,53.5 Z"/></g>
<g><path style="opacity:1" fill="#042c33" d="M 166.5,34.5 C 166.5,34.8333 166.5,35.1667 166.5,35.5C 164.833,35.5 163.167,35.5 161.5,35.5C 161.5,46.1667 161.5,56.8333 161.5,67.5C 160.069,66.2196 159.402,64.5529 159.5,62.5C 160.353,53.6592 160.52,44.6592 160,35.5C 162.041,34.5769 164.208,34.2436 166.5,34.5 Z"/></g>
<g><path style="opacity:1" fill="#121e35" d="M 203.5,49.5 C 206.272,50.3715 208.938,50.3715 211.5,49.5C 211.5,50.5 211.5,51.5 211.5,52.5C 207.988,53.0545 204.988,52.3878 202.5,50.5C 202.5,49.8333 202.833,49.5 203.5,49.5 Z"/></g>
<g><path style="opacity:1" fill="#164b4c" d="M 250.5,47.5 C 250.167,47.5 249.833,47.5 249.5,47.5C 243.221,48.4484 240.221,52.1151 240.5,58.5C 239.04,55.3728 239.373,52.3728 241.5,49.5C 244.099,46.5707 247.099,45.904 250.5,47.5 Z"/></g>
<g><path style="opacity:1" fill="#39a78c" d="M 88.5,45.5 C 90.5273,45.3379 92.5273,45.5045 94.5,46C 92.6803,46.2004 91.347,47.0337 90.5,48.5C 87.6213,49.8026 86.9546,51.8026 88.5,54.5C 88.5,55.5 88.5,56.5 88.5,57.5C 87.596,58.209 87.2627,59.209 87.5,60.5C 87.5,61.8333 86.8333,62.5 85.5,62.5C 83.5876,58.8064 83.0876,54.8064 84,50.5C 85.0669,48.3083 86.5669,46.6417 88.5,45.5 Z"/></g>
<g><path style="opacity:1" fill="#3aa189" d="M 165.5,48.5 C 168.258,49.8182 171.424,50.4848 175,50.5C 178.352,50.4982 181.518,50.1649 184.5,49.5C 185.166,45.3155 185.833,40.9822 186.5,36.5C 187.167,43.6553 187.833,50.6553 188.5,57.5C 188.937,60.8066 188.27,63.8066 186.5,66.5C 185.833,62.0178 185.166,57.6845 184.5,53.5C 178.5,53.5 172.5,53.5 166.5,53.5C 165.514,57.97 165.181,62.6367 165.5,67.5C 164.5,67.5 163.5,67.5 162.5,67.5C 162.334,57.4944 162.5,47.4944 163,37.5C 163.414,37.0426 163.914,36.7093 164.5,36.5C 165.491,40.4454 165.824,44.4454 165.5,48.5 Z"/></g>
<g><path style="opacity:1" fill="#1b8772" d="M 165.5,48.5 C 165.833,48.5 166.167,48.5 166.5,48.5C 172.31,49.4896 178.31,49.8229 184.5,49.5C 181.518,50.1649 178.352,50.4982 175,50.5C 171.424,50.4848 168.258,49.8182 165.5,48.5 Z"/></g>
<g><path style="opacity:1" fill="#3e988b" d="M 243.5,43.5 C 248.827,42.7407 253.494,44.0741 257.5,47.5C 259.67,52.3642 260.003,57.3642 258.5,62.5C 256.833,64.1667 255.167,65.8333 253.5,67.5C 252.833,67.5 252.167,67.5 251.5,67.5C 248.603,67.8747 245.937,67.3747 243.5,66C 246.956,65.8198 250.289,65.1532 253.5,64C 254.582,62.6703 255.249,61.1703 255.5,59.5C 256.832,53.9748 255.165,49.9748 250.5,47.5C 247.099,45.904 244.099,46.5707 241.5,49.5C 241.218,48.2223 240.551,47.2223 239.5,46.5C 241.404,46.2624 242.738,45.2624 243.5,43.5 Z"/></g>
<g><path style="opacity:1" fill="#34a88e" d="M 78.5,53.5 C 78.5674,54.9587 78.2341,56.2921 77.5,57.5C 76.5,57.5 75.5,57.5 74.5,57.5C 74.1796,54.1016 74.513,50.7683 75.5,47.5C 76.2082,49.7451 77.2082,51.7451 78.5,53.5 Z"/></g>
<g><path style="opacity:1" fill="#0e2234" d="M 249.5,47.5 C 250.502,49.0109 251.169,50.6776 251.5,52.5C 248.938,53.18 246.271,53.3467 243.5,53C 242.556,55.7191 242.223,58.5525 242.5,61.5C 242.167,61.5 241.833,61.5 241.5,61.5C 241.672,60.5084 241.338,59.8417 240.5,59.5C 240.5,59.1667 240.5,58.8333 240.5,58.5C 240.221,52.1151 243.221,48.4484 249.5,47.5 Z"/></g>
<g><path style="opacity:1" fill="#053034" d="M 249.5,47.5 C 249.833,47.5 250.167,47.5 250.5,47.5C 255.165,49.9748 256.832,53.9748 255.5,59.5C 252.761,64.0258 248.761,65.5258 243.5,64C 242.619,63.2917 241.953,62.4584 241.5,61.5C 241.833,61.5 242.167,61.5 242.5,61.5C 252.173,64.3691 255.173,61.3691 251.5,52.5C 251.169,50.6776 250.502,49.0109 249.5,47.5 Z"/></g>
<g><path style="opacity:1" fill="#042c2f" d="M 116.5,48.5 C 116.414,49.4959 116.748,50.3292 117.5,51C 121.932,50.8898 125.598,52.3898 128.5,55.5C 128.5,56.1667 128.5,56.8333 128.5,57.5C 124.874,54.1695 120.541,52.5028 115.5,52.5C 115.232,50.901 115.566,49.5676 116.5,48.5 Z"/></g>
<g><path style="opacity:1" fill="#082732" d="M 214.5,51.5 C 214.5,52.1667 214.5,52.8333 214.5,53.5C 209.786,53.8266 205.12,53.4933 200.5,52.5C 200.855,51.4777 201.522,50.811 202.5,50.5C 204.988,52.3878 207.988,53.0545 211.5,52.5C 211.5,51.5 211.5,50.5 211.5,49.5C 208.938,50.3715 206.272,50.3715 203.5,49.5C 203.833,48.8333 204.167,48.1667 204.5,47.5C 208.821,45.9837 212.155,47.317 214.5,51.5 Z"/></g>
<g><path style="opacity:1" fill="#40a28e" d="M 227.5,34.5 C 228.143,45.5524 227.476,56.2191 225.5,66.5C 224.857,55.4476 225.524,44.7809 227.5,34.5 Z"/></g>
<g><path style="opacity:1" fill="#062534" d="M 47.5,37.5 C 47.9585,47.3313 48.6252,56.998 49.5,66.5C 51.7432,67.8117 54.4098,68.4783 57.5,68.5C 60.3555,68.4975 63.0221,68.1641 65.5,67.5C 69.5767,66.2942 73.2433,64.2942 76.5,61.5C 76.4121,64.9266 74.7455,67.2599 71.5,68.5C 67.4893,69.2267 63.4893,69.8934 59.5,70.5C 55.4583,70.7694 51.4583,70.2694 47.5,69C 46.1711,58.4019 46.1711,47.9019 47.5,37.5 Z"/></g>
<g><path style="opacity:1" fill="#359f87" d="M 50.5,36.5 C 52.5,36.5 54.5,36.5 56.5,36.5C 56.5,37.5 56.5,38.5 56.5,39.5C 54.5332,47.0968 53.8665,55.0968 54.5,63.5C 58.0419,63.8128 61.3752,63.4794 64.5,62.5C 65.5,62.5 66.5,62.5 67.5,62.5C 68.7108,64.5627 67.8774,65.5627 65,65.5C 60.0921,64.7039 55.2587,64.3706 50.5,64.5C 50.5,55.1667 50.5,45.8333 50.5,36.5 Z"/></g>
<g><path style="opacity:1" fill="#121d37" d="M 65.5,42.5 C 66.1667,42.5 66.8333,42.5 67.5,42.5C 68.8511,45.8625 70.1844,49.1959 71.5,52.5C 69.6724,55.3128 68.339,58.3128 67.5,61.5C 66.5,61.5 65.5,61.5 64.5,61.5C 63.1667,61.5 61.8333,61.5 60.5,61.5C 59.3162,55.6441 57.9829,49.8107 56.5,44C 56.8333,43.5 57.1667,43 57.5,42.5C 58.2164,43.311 59.0497,43.9777 60,44.5C 61.5971,43.1153 63.4305,42.4486 65.5,42.5 Z"/></g>
<g><path style="opacity:1" fill="#24625e" d="M 90.5,48.5 C 90.8333,48.5 91.1667,48.5 91.5,48.5C 90.0582,49.8195 89.3915,51.4862 89.5,53.5C 93.1667,53.5 96.8333,53.5 100.5,53.5C 100.5,53.8333 100.5,54.1667 100.5,54.5C 96.5,54.5 92.5,54.5 88.5,54.5C 86.9546,51.8026 87.6213,49.8026 90.5,48.5 Z"/></g>
<g><path style="opacity:1" fill="#0f1d36" d="M 132.5,61.5 C 131.289,59.3704 129.956,57.3704 128.5,55.5C 125.598,52.3898 121.932,50.8898 117.5,51C 116.748,50.3292 116.414,49.4959 116.5,48.5C 120.34,49.3352 124.006,49.3352 127.5,48.5C 128.82,47.0582 130.486,46.3915 132.5,46.5C 132.5,51.5 132.5,56.5 132.5,61.5 Z"/></g>
<g><path style="opacity:1" fill="#31ab88" d="M 135.5,46.5 C 137.098,48.8567 138.098,51.5234 138.5,54.5C 139.492,54.6716 140.158,54.3382 140.5,53.5C 140.833,53.5 141.167,53.5 141.5,53.5C 143.167,52.5 144.5,51.1667 145.5,49.5C 146.376,49.3691 147.043,49.7025 147.5,50.5C 146.873,51.4168 146.539,52.4168 146.5,53.5C 145.833,54.8333 145.167,56.1667 144.5,57.5C 142.62,57.2291 141.287,57.8958 140.5,59.5C 139.833,59.5 139.5,59.8333 139.5,60.5C 138.279,61.0283 137.113,61.695 136,62.5C 135.501,57.1771 135.334,51.8437 135.5,46.5 Z"/></g>
<g><path style="opacity:1" fill="#1f756c" d="M 143.5,49.5 C 143.833,49.5 144.167,49.5 144.5,49.5C 144.833,49.5 145.167,49.5 145.5,49.5C 144.5,51.1667 143.167,52.5 141.5,53.5C 141.557,52.391 141.89,51.391 142.5,50.5C 143.167,50.5 143.5,50.1667 143.5,49.5 Z"/></g>
<g><path style="opacity:1" fill="#022832" d="M 166.5,53.5 C 172.5,53.5 178.5,53.5 184.5,53.5C 184.5,58.5 184.5,63.5 184.5,68.5C 185.833,68.5 187.167,68.5 188.5,68.5C 187.432,69.4345 186.099,69.7678 184.5,69.5C 183.513,64.6946 183.179,59.6946 183.5,54.5C 178.167,54.5 172.833,54.5 167.5,54.5C 167.817,58.7016 167.483,62.7016 166.5,66.5C 166.5,62.1667 166.5,57.8333 166.5,53.5 Z"/></g>
<g><path style="opacity:1" fill="#145e58" d="M 204.5,47.5 C 204.167,48.1667 203.833,48.8333 203.5,49.5C 202.833,49.5 202.5,49.8333 202.5,50.5C 201.522,50.811 200.855,51.4777 200.5,52.5C 205.12,53.4933 209.786,53.8266 214.5,53.5C 209.695,54.4872 204.695,54.8205 199.5,54.5C 199.241,50.7632 200.907,48.4298 204.5,47.5 Z"/></g>
<g><path style="opacity:1" fill="#398b7d" d="M 124.5,44.5 C 126.912,44.6941 127.912,46.0274 127.5,48.5C 123.672,47.502 120.006,47.502 116.5,48.5C 115.566,49.5676 115.232,50.901 115.5,52.5C 120.541,52.5028 124.874,54.1695 128.5,57.5C 128.552,59.9029 128.219,62.2362 127.5,64.5C 126.657,66.1733 125.324,67.34 123.5,68C 119.848,68.4986 116.182,68.6653 112.5,68.5C 112.5,67.8333 112.5,67.1667 112.5,66.5C 111.766,65.2921 111.433,63.9587 111.5,62.5C 112.167,62.5 112.833,62.5 113.5,62.5C 116.228,64.0764 119.228,64.5764 122.5,64C 124.107,62.951 124.773,61.451 124.5,59.5C 123.5,59.5 122.5,59.5 121.5,59.5C 120.942,58.2101 119.942,57.3768 118.5,57C 116.414,56.6847 114.414,56.1847 112.5,55.5C 111.854,53.8439 111.187,52.1772 110.5,50.5C 110.846,49.1508 111.179,47.8175 111.5,46.5C 112.167,46.5 112.5,46.1667 112.5,45.5C 112.833,45.5 113.167,45.5 113.5,45.5C 115.134,46.1611 116.967,46.4944 119,46.5C 121.295,46.4535 123.129,45.7868 124.5,44.5 Z"/></g>
<g><path style="opacity:1" fill="#0e1e36" d="M 153.5,49.5 C 155.371,49.8588 156.871,50.8588 158,52.5C 158.61,55.8273 159.11,59.1606 159.5,62.5C 159.402,64.5529 160.069,66.2196 161.5,67.5C 162.097,68.1386 162.93,68.472 164,68.5C 165.376,68.3158 166.209,67.6491 166.5,66.5C 167.483,62.7016 167.817,58.7016 167.5,54.5C 172.833,54.5 178.167,54.5 183.5,54.5C 183.179,59.6946 183.513,64.6946 184.5,69.5C 184.833,70.5 185.5,71.1667 186.5,71.5C 186.44,72.0431 186.107,72.3764 185.5,72.5C 181.511,71.8934 177.511,71.2267 173.5,70.5C 173.167,69.5 172.5,68.8333 171.5,68.5C 169.051,68.98 166.885,69.98 165,71.5C 163.559,70.7402 162.059,70.0736 160.5,69.5C 159.614,68.675 159.281,67.675 159.5,66.5C 158.5,66.5 157.5,66.5 156.5,66.5C 156.5,66.1667 156.5,65.8333 156.5,65.5C 156.5,64.1667 156.5,62.8333 156.5,61.5C 155.5,61.5 154.5,61.5 153.5,61.5C 153.5,60.1667 153.5,58.8333 153.5,57.5C 149.932,57.2407 148.599,55.2407 149.5,51.5C 151.199,51.4729 152.533,50.8062 153.5,49.5 Z"/></g>
<g><path style="opacity:1" fill="#3d847e" d="M 227.5,33.5 C 227.833,33.5 228.167,33.5 228.5,33.5C 228.5,44.8333 228.5,56.1667 228.5,67.5C 227.5,68.8333 226.5,68.8333 225.5,67.5C 225.5,67.1667 225.5,66.8333 225.5,66.5C 227.476,56.2191 228.143,45.5524 227.5,34.5C 227.5,34.1667 227.5,33.8333 227.5,33.5 Z"/></g>
<g><path style="opacity:1" fill="#31927b" d="M 236.5,44.5 C 238.179,44.2852 239.179,44.9519 239.5,46.5C 238.883,46.3893 238.383,46.056 238,45.5C 237.5,54.8274 237.334,64.1607 237.5,73.5C 237.167,73.5 236.833,73.5 236.5,73.5C 236.5,63.8333 236.5,54.1667 236.5,44.5 Z"/></g>
<g><path style="opacity:1" fill="#45ab94" d="M 239.5,46.5 C 240.551,47.2223 241.218,48.2223 241.5,49.5C 239.373,52.3728 239.04,55.3728 240.5,58.5C 240.5,58.8333 240.5,59.1667 240.5,59.5C 240.286,61.1439 240.62,62.6439 241.5,64C 240.584,64.2784 239.918,64.7784 239.5,65.5C 238.833,68.1667 238.167,70.8333 237.5,73.5C 237.334,64.1607 237.5,54.8274 238,45.5C 238.383,46.056 238.883,46.3893 239.5,46.5 Z"/></g>
<g><path style="opacity:1" fill="#141d38" d="M 251.5,52.5 C 255.173,61.3691 252.173,64.3691 242.5,61.5C 242.223,58.5525 242.556,55.7191 243.5,53C 246.271,53.3467 248.938,53.18 251.5,52.5 Z"/></g>
<g><path style="opacity:1" fill="#40968a" d="M 105.5,56.5 C 105.5,56.8333 105.5,57.1667 105.5,57.5C 99.8333,57.5 94.1667,57.5 88.5,57.5C 88.5,56.5 88.5,55.5 88.5,54.5C 92.5,54.5 96.5,54.5 100.5,54.5C 102.164,53.0512 102.998,51.0512 103,48.5C 104.731,50.8618 105.565,53.5285 105.5,56.5 Z"/></g>
<g><path style="opacity:1" fill="#0b2035" d="M 65.5,42.5 C 63.4305,42.4486 61.5971,43.1153 60,44.5C 59.0497,43.9777 58.2164,43.311 57.5,42.5C 57.1667,43 56.8333,43.5 56.5,44C 57.9829,49.8107 59.3162,55.6441 60.5,61.5C 61.8333,61.5 63.1667,61.5 64.5,61.5C 64.5,61.8333 64.5,62.1667 64.5,62.5C 61.5,62.5 58.5,62.5 55.5,62.5C 55.5,55.1667 55.5,47.8333 55.5,40.5C 58.1873,40.3359 60.854,40.5026 63.5,41C 64.4158,41.2784 65.0825,41.7784 65.5,42.5 Z"/></g>
<g><path style="opacity:1" fill="#0a4743" d="M 139.5,33.5 C 139.5,34.8333 139.5,36.1667 139.5,37.5C 139.167,37.5 138.833,37.5 138.5,37.5C 138.5,36.5 138.5,35.5 138.5,34.5C 137.5,34.5 136.5,34.5 135.5,34.5C 134.506,44.9869 134.172,55.6536 134.5,66.5C 133.833,66.5 133.5,66.1667 133.5,65.5C 133.5,55.1667 133.5,44.8333 133.5,34.5C 135.265,33.5386 137.265,33.2053 139.5,33.5 Z"/></g>
<g><path style="opacity:1" fill="#0f1f34" d="M 189.5,35.5 C 191.265,38.544 192.265,42.044 192.5,46C 191.619,48.6905 192.619,49.1905 195.5,47.5C 194.441,52.4477 194.274,57.4477 195,62.5C 196.773,64.4195 198.273,66.4195 199.5,68.5C 197.246,67.746 195.413,66.4127 194,64.5C 191.419,66.8196 188.919,69.1529 186.5,71.5C 185.5,71.1667 184.833,70.5 184.5,69.5C 186.099,69.7678 187.432,69.4345 188.5,68.5C 189.477,57.5813 189.81,46.5813 189.5,35.5 Z"/></g>
<g><path style="opacity:1" fill="#255d59" d="M 218.5,56.5 C 217.432,57.4345 216.099,57.7678 214.5,57.5C 209.833,57.5 205.167,57.5 200.5,57.5C 200.5,58.5 200.5,59.5 200.5,60.5C 199.566,59.4324 199.232,58.099 199.5,56.5C 205.833,56.5 212.167,56.5 218.5,56.5 Z"/></g>
<g><path style="opacity:1" fill="#0e5a52" d="M 72.5,57.5 C 72.573,59.0269 71.9063,60.0269 70.5,60.5C 70.427,58.9731 71.0937,57.9731 72.5,57.5 Z"/></g>
<g><path style="opacity:1" fill="#101c35" d="M 112.5,55.5 C 112.5,56.5 112.5,57.5 112.5,58.5C 115.681,58.0016 118.347,58.8349 120.5,61C 115.792,61.4958 111.125,61.1624 106.5,60C 105.944,59.6174 105.611,59.1174 105.5,58.5C 105.5,58.1667 105.5,57.8333 105.5,57.5C 106.999,56.3218 107.999,54.6551 108.5,52.5C 109.852,53.5244 111.185,54.5244 112.5,55.5 Z"/></g>
<g><path style="opacity:1" fill="#052c34" d="M 149.5,51.5 C 148.599,55.2407 149.932,57.2407 153.5,57.5C 153.5,58.8333 153.5,60.1667 153.5,61.5C 154.5,61.5 155.5,61.5 156.5,61.5C 156.5,62.8333 156.5,64.1667 156.5,65.5C 156.167,65.5 155.833,65.5 155.5,65.5C 154.833,64.1667 153.833,63.1667 152.5,62.5C 150.5,59.5 148.5,56.5 146.5,53.5C 147.5,52.8333 148.5,52.1667 149.5,51.5 Z"/></g>
<g><path style="opacity:1" fill="#072c34" d="M 214.5,57.5 C 213.081,58.4511 211.415,58.7845 209.5,58.5C 207.801,58.3398 206.134,58.5065 204.5,59C 203.167,60.3333 203.167,61.6667 204.5,63C 206.712,63.7891 208.712,63.6225 210.5,62.5C 211.167,62.5 211.833,62.5 212.5,62.5C 212.389,63.1174 212.056,63.6174 211.5,64C 206.774,65.482 203.107,64.3153 200.5,60.5C 200.5,59.5 200.5,58.5 200.5,57.5C 205.167,57.5 209.833,57.5 214.5,57.5 Z"/></g>
<g><path style="opacity:1" fill="#236962" d="M 166.5,35.5 C 166.5,39.8333 166.5,44.1667 166.5,48.5C 166.167,48.5 165.833,48.5 165.5,48.5C 165.824,44.4454 165.491,40.4454 164.5,36.5C 163.914,36.7093 163.414,37.0426 163,37.5C 162.5,47.4944 162.334,57.4944 162.5,67.5C 163.5,67.5 164.5,67.5 165.5,67.5C 165.181,62.6367 165.514,57.97 166.5,53.5C 166.5,57.8333 166.5,62.1667 166.5,66.5C 166.209,67.6491 165.376,68.3158 164,68.5C 162.93,68.472 162.097,68.1386 161.5,67.5C 161.5,56.8333 161.5,46.1667 161.5,35.5C 163.167,35.5 164.833,35.5 166.5,35.5 Z"/></g>
<g><path style="opacity:1" fill="#0a3f3f" d="M 88.5,44.5 C 88.5,44.8333 88.5,45.1667 88.5,45.5C 86.5669,46.6417 85.0669,48.3083 84,50.5C 83.0876,54.8064 83.5876,58.8064 85.5,62.5C 85.5,63.1667 85.5,63.8333 85.5,64.5C 82.8283,62.6086 81.8283,59.9419 82.5,56.5C 81.209,56.2627 80.209,56.596 79.5,57.5C 78.8333,57.8333 78.1667,58.1667 77.5,58.5C 77.5,58.1667 77.5,57.8333 77.5,57.5C 78.2341,56.2921 78.5674,54.9587 78.5,53.5C 78.5987,50.7628 78.2653,48.0961 77.5,45.5C 78.1174,45.6107 78.6174,45.944 79,46.5C 79.4966,48.8098 79.6633,51.1432 79.5,53.5C 80.5,53.5 81.5,53.5 82.5,53.5C 81.4455,48.2514 83.4455,45.2514 88.5,44.5 Z"/></g>
<g><path style="opacity:1" fill="#0a2836" d="M 112.5,55.5 C 114.414,56.1847 116.414,56.6847 118.5,57C 119.942,57.3768 120.942,58.2101 121.5,59.5C 122.598,60.397 122.598,61.2303 121.5,62C 118.854,62.4974 116.187,62.6641 113.5,62.5C 112.833,62.5 112.167,62.5 111.5,62.5C 110.876,62.9169 110.543,63.5836 110.5,64.5C 110.747,65.7133 111.414,66.38 112.5,66.5C 112.5,67.1667 112.5,67.8333 112.5,68.5C 110.215,67.7755 108.382,66.4422 107,64.5C 105.265,68.7181 102.099,70.5515 97.5,70C 96.6804,72.9143 95.6804,73.081 94.5,70.5C 85.8701,69.8471 80.8701,65.5137 79.5,57.5C 80.209,56.596 81.209,56.2627 82.5,56.5C 81.8283,59.9419 82.8283,62.6086 85.5,64.5C 86.1667,64.8333 86.8333,65.1667 87.5,65.5C 87.9528,66.4584 88.6195,67.2917 89.5,68C 93.3575,68.8099 97.0242,68.6433 100.5,67.5C 105.727,65.4474 105.727,63.7807 100.5,62.5C 100.5,61.5 100.5,60.5 100.5,59.5C 96.9878,58.9455 93.9878,59.6122 91.5,61.5C 90.596,60.791 90.2627,59.791 90.5,58.5C 95.5,58.5 100.5,58.5 105.5,58.5C 105.611,59.1174 105.944,59.6174 106.5,60C 111.125,61.1624 115.792,61.4958 120.5,61C 118.347,58.8349 115.681,58.0016 112.5,58.5C 112.5,57.5 112.5,56.5 112.5,55.5 Z"/></g>
<g><path style="opacity:1" fill="#063b37" d="M 88.5,57.5 C 94.1667,57.5 99.8333,57.5 105.5,57.5C 105.5,57.8333 105.5,58.1667 105.5,58.5C 100.5,58.5 95.5,58.5 90.5,58.5C 90.2627,59.791 90.596,60.791 91.5,61.5C 93.9479,62.4731 96.6146,62.8064 99.5,62.5C 95.1476,65.0732 91.1476,64.4066 87.5,60.5C 87.2627,59.209 87.596,58.209 88.5,57.5 Z"/></g>
<g><path style="opacity:1" fill="#2b686a" d="M 128.5,57.5 C 129.147,58.2739 129.48,59.2739 129.5,60.5C 129.66,62.3545 128.993,63.6879 127.5,64.5C 128.219,62.2362 128.552,59.9029 128.5,57.5 Z"/></g>
<g><path style="opacity:1" fill="#074142" d="M 144.5,57.5 C 145.167,59.1667 145.833,60.8333 146.5,62.5C 145.5,61.8333 144.5,61.1667 143.5,60.5C 143.631,59.7611 143.464,59.0944 143,58.5C 142.329,59.2524 141.496,59.5858 140.5,59.5C 141.287,57.8958 142.62,57.2291 144.5,57.5 Z"/></g>
<g><path style="opacity:1" fill="#0c2033" d="M 222.5,44.5 C 222.233,52.2223 222.566,59.889 223.5,67.5C 221.167,66.1667 218.833,66.1667 216.5,67.5C 217.341,65.6208 217.675,63.6208 217.5,61.5C 215.901,61.2322 214.568,61.5655 213.5,62.5C 213.167,62.5 212.833,62.5 212.5,62.5C 211.833,62.5 211.167,62.5 210.5,62.5C 211.471,61.0379 211.138,59.7046 209.5,58.5C 211.415,58.7845 213.081,58.4511 214.5,57.5C 216.099,57.7678 217.432,57.4345 218.5,56.5C 219.541,53.2518 218.874,50.2518 216.5,47.5C 216.443,46.391 216.11,45.391 215.5,44.5C 212.431,40.0388 208.098,38.3721 202.5,39.5C 207.777,37.2182 212.777,38.0516 217.5,42C 217.167,42.3333 216.833,42.6667 216.5,43C 218.436,43.813 220.436,44.313 222.5,44.5 Z"/></g>
<g><path style="opacity:1" fill="#0c203b" d="M 100.5,62.5 C 100.167,62.5 99.8333,62.5 99.5,62.5C 96.6146,62.8064 93.9479,62.4731 91.5,61.5C 93.9878,59.6122 96.9878,58.9455 100.5,59.5C 100.5,60.5 100.5,61.5 100.5,62.5 Z"/></g>
<g><path style="opacity:1" fill="#0f1b37" d="M 209.5,58.5 C 211.138,59.7046 211.471,61.0379 210.5,62.5C 208.712,63.6225 206.712,63.7891 204.5,63C 203.167,61.6667 203.167,60.3333 204.5,59C 206.134,58.5065 207.801,58.3398 209.5,58.5 Z"/></g>
<g><path style="opacity:1" fill="#113d43" d="M 257.5,47.5 C 258.15,47.8039 258.817,48.1373 259.5,48.5C 260.661,52.7953 260.828,57.1287 260,61.5C 259.617,62.056 259.117,62.3893 258.5,62.5C 260.003,57.3642 259.67,52.3642 257.5,47.5 Z"/></g>
<g><path style="opacity:1" fill="#013931" d="M 121.5,59.5 C 122.5,59.5 123.5,59.5 124.5,59.5C 124.773,61.451 124.107,62.951 122.5,64C 119.228,64.5764 116.228,64.0764 113.5,62.5C 116.187,62.6641 118.854,62.4974 121.5,62C 122.598,61.2303 122.598,60.397 121.5,59.5 Z"/></g>
<g><path style="opacity:1" fill="#389986" d="M 146.5,53.5 C 148.5,56.5 150.5,59.5 152.5,62.5C 152.5,63.5 152.5,64.5 152.5,65.5C 151.5,65.5 150.5,65.5 149.5,65.5C 149.144,63.8102 148.144,62.8102 146.5,62.5C 145.833,60.8333 145.167,59.1667 144.5,57.5C 145.167,56.1667 145.833,54.8333 146.5,53.5 Z"/></g>
<g><path style="opacity:1" fill="#399a8a" d="M 218.5,56.5 C 212.167,56.5 205.833,56.5 199.5,56.5C 199.232,58.099 199.566,59.4324 200.5,60.5C 203.107,64.3153 206.774,65.482 211.5,64C 212.056,63.6174 212.389,63.1174 212.5,62.5C 212.833,62.5 213.167,62.5 213.5,62.5C 214.5,62.5 215.5,62.5 216.5,62.5C 216.67,63.8221 216.337,64.9887 215.5,66C 210.953,67.5452 206.287,67.8785 201.5,67C 199.627,65.2962 197.96,63.4628 196.5,61.5C 196.183,58.4281 196.516,55.4281 197.5,52.5C 198.182,53.2427 198.849,53.9094 199.5,54.5C 204.695,54.8205 209.695,54.4872 214.5,53.5C 214.5,52.8333 214.5,52.1667 214.5,51.5C 214.369,50.6236 214.702,49.9569 215.5,49.5C 217.009,51.6564 218.009,53.9897 218.5,56.5 Z"/></g>
<g><path style="opacity:1" fill="#2c8274" d="M 240.5,59.5 C 241.338,59.8417 241.672,60.5084 241.5,61.5C 241.953,62.4584 242.619,63.2917 243.5,64C 248.761,65.5258 252.761,64.0258 255.5,59.5C 255.249,61.1703 254.582,62.6703 253.5,64C 250.289,65.1532 246.956,65.8198 243.5,66C 245.937,67.3747 248.603,67.8747 251.5,67.5C 249.034,68.6341 246.367,68.8007 243.5,68C 242.944,67.6174 242.611,67.1174 242.5,66.5C 241.791,65.596 240.791,65.2627 239.5,65.5C 239.918,64.7784 240.584,64.2784 241.5,64C 240.62,62.6439 240.286,61.1439 240.5,59.5 Z"/></g>
<g><path style="opacity:1" fill="#296e68" d="M 188.5,35.5 C 188.833,35.5 189.167,35.5 189.5,35.5C 189.81,46.5813 189.477,57.5813 188.5,68.5C 187.167,68.5 185.833,68.5 184.5,68.5C 184.5,63.5 184.5,58.5 184.5,53.5C 185.166,57.6845 185.833,62.0178 186.5,66.5C 188.27,63.8066 188.937,60.8066 188.5,57.5C 188.5,50.1667 188.5,42.8333 188.5,35.5 Z"/></g>
<g><path style="opacity:1" fill="#358c7d" d="M 135.5,34.5 C 135.5,38.5 135.5,42.5 135.5,46.5C 135.334,51.8437 135.501,57.1771 136,62.5C 137.113,61.695 138.279,61.0283 139.5,60.5C 139.5,61.8333 139.5,63.1667 139.5,64.5C 138.596,65.209 138.263,66.209 138.5,67.5C 137.167,67.5 135.833,67.5 134.5,67.5C 134.5,67.1667 134.5,66.8333 134.5,66.5C 134.172,55.6536 134.506,44.9869 135.5,34.5 Z"/></g>
<g><path style="opacity:1" fill="#3f9185" d="M 72.5,40.5 C 73.675,40.281 74.675,40.6143 75.5,41.5C 75.9424,42.7387 76.6091,43.7387 77.5,44.5C 77.5,44.8333 77.5,45.1667 77.5,45.5C 78.2653,48.0961 78.5987,50.7628 78.5,53.5C 77.2082,51.7451 76.2082,49.7451 75.5,47.5C 74.513,50.7683 74.1796,54.1016 74.5,57.5C 75.5,57.5 76.5,57.5 77.5,57.5C 77.5,57.8333 77.5,58.1667 77.5,58.5C 76.596,59.209 76.2627,60.209 76.5,61.5C 73.2433,64.2942 69.5767,66.2942 65.5,67.5C 60.5,67.5 55.5,67.5 50.5,67.5C 50.5,66.5 50.5,65.5 50.5,64.5C 55.2587,64.3706 60.0921,64.7039 65,65.5C 67.8774,65.5627 68.7108,64.5627 67.5,62.5C 68.2223,61.4489 69.2223,60.7822 70.5,60.5C 71.9063,60.0269 72.573,59.0269 72.5,57.5C 73.6408,54.3601 73.8075,51.0267 73,47.5C 71.9243,44.921 70.091,43.2543 67.5,42.5C 67.5,42.1667 67.5,41.8333 67.5,41.5C 69.4147,41.7845 71.0813,41.4511 72.5,40.5 Z"/></g>
<g><path style="opacity:1" fill="#429487" d="M 87.5,60.5 C 91.1476,64.4066 95.1476,65.0732 99.5,62.5C 99.8333,62.5 100.167,62.5 100.5,62.5C 105.727,63.7807 105.727,65.4474 100.5,67.5C 95.8986,67.9449 91.5653,67.2783 87.5,65.5C 86.8333,65.1667 86.1667,64.8333 85.5,64.5C 85.5,63.8333 85.5,63.1667 85.5,62.5C 86.8333,62.5 87.5,61.8333 87.5,60.5 Z"/></g>
<g><path style="opacity:1" fill="#2f7676" d="M 111.5,62.5 C 111.433,63.9587 111.766,65.2921 112.5,66.5C 111.414,66.38 110.747,65.7133 110.5,64.5C 110.543,63.5836 110.876,62.9169 111.5,62.5 Z"/></g>
<g><path style="opacity:1" fill="#3c8b85" d="M 152.5,62.5 C 153.833,63.1667 154.833,64.1667 155.5,65.5C 154.817,67.1765 153.483,67.8432 151.5,67.5C 150.5,67.1667 149.833,66.5 149.5,65.5C 150.5,65.5 151.5,65.5 152.5,65.5C 152.5,64.5 152.5,63.5 152.5,62.5 Z"/></g>
<g><path style="opacity:1" fill="#21605d" d="M 50.5,36.5 C 50.5,45.8333 50.5,55.1667 50.5,64.5C 50.5,65.5 50.5,66.5 50.5,67.5C 55.5,67.5 60.5,67.5 65.5,67.5C 63.0221,68.1641 60.3555,68.4975 57.5,68.5C 54.4098,68.4783 51.7432,67.8117 49.5,66.5C 49.1726,56.3194 49.506,46.3194 50.5,36.5 Z"/></g>
<g><path style="opacity:1" fill="#2b5e63" d="M 87.5,65.5 C 91.5653,67.2783 95.8986,67.9449 100.5,67.5C 97.0242,68.6433 93.3575,68.8099 89.5,68C 88.6195,67.2917 87.9528,66.4584 87.5,65.5 Z"/></g>
<g><path style="opacity:1" fill="#3a5a6b" d="M 155.5,65.5 C 155.833,65.5 156.167,65.5 156.5,65.5C 156.5,65.8333 156.5,66.1667 156.5,66.5C 156.5,67.8333 155.833,68.5 154.5,68.5C 153.209,68.7373 152.209,68.404 151.5,67.5C 153.483,67.8432 154.817,67.1765 155.5,65.5 Z"/></g>
<g><path style="opacity:1" fill="#0b353d" d="M 199.5,45.5 C 195.52,50.3074 194.52,55.6407 196.5,61.5C 197.96,63.4628 199.627,65.2962 201.5,67C 206.287,67.8785 210.953,67.5452 215.5,66C 216.337,64.9887 216.67,63.8221 216.5,62.5C 215.5,62.5 214.5,62.5 213.5,62.5C 214.568,61.5655 215.901,61.2322 217.5,61.5C 217.675,63.6208 217.341,65.6208 216.5,67.5C 214.084,68.9682 211.417,69.6349 208.5,69.5C 205.287,69.81 202.287,69.4767 199.5,68.5C 198.273,66.4195 196.773,64.4195 195,62.5C 194.274,57.4477 194.441,52.4477 195.5,47.5C 195.5,47.1667 195.5,46.8333 195.5,46.5C 196.708,45.7659 198.041,45.4326 199.5,45.5 Z"/></g>
<g><path style="opacity:1" fill="#0a2333" d="M 128.5,55.5 C 129.956,57.3704 131.289,59.3704 132.5,61.5C 132.232,63.099 132.566,64.4324 133.5,65.5C 133.5,66.1667 133.833,66.5 134.5,66.5C 134.5,66.8333 134.5,67.1667 134.5,67.5C 135.919,68.4511 137.585,68.7845 139.5,68.5C 139.5,67.1667 139.5,65.8333 139.5,64.5C 139.5,63.1667 139.5,61.8333 139.5,60.5C 139.5,59.8333 139.833,59.5 140.5,59.5C 141.496,59.5858 142.329,59.2524 143,58.5C 143.464,59.0944 143.631,59.7611 143.5,60.5C 141.768,63.0389 140.768,66.0389 140.5,69.5C 141.025,70.1924 141.692,70.6924 142.5,71C 142,71.1667 141.5,71.3333 141,71.5C 138.322,70.1638 135.489,69.3304 132.5,69C 131.013,65.8763 129.347,65.8763 127.5,69C 122.511,69.4993 117.511,69.6659 112.5,69.5C 112.5,69.1667 112.5,68.8333 112.5,68.5C 116.182,68.6653 119.848,68.4986 123.5,68C 125.324,67.34 126.657,66.1733 127.5,64.5C 128.993,63.6879 129.66,62.3545 129.5,60.5C 129.48,59.2739 129.147,58.2739 128.5,57.5C 128.5,56.8333 128.5,56.1667 128.5,55.5 Z"/></g>
<g><path style="opacity:1" fill="#26525b" d="M 139.5,64.5 C 139.5,65.8333 139.5,67.1667 139.5,68.5C 137.585,68.7845 135.919,68.4511 134.5,67.5C 135.833,67.5 137.167,67.5 138.5,67.5C 138.263,66.209 138.596,65.209 139.5,64.5 Z"/></g>
<g><path style="opacity:1" fill="#052732" d="M 143.5,60.5 C 144.5,61.1667 145.5,61.8333 146.5,62.5C 148.144,62.8102 149.144,63.8102 149.5,65.5C 149.833,66.5 150.5,67.1667 151.5,67.5C 152.209,68.404 153.209,68.7373 154.5,68.5C 152.735,69.4614 150.735,69.7947 148.5,69.5C 146.914,66.8863 145.248,64.2197 143.5,61.5C 143.5,61.1667 143.5,60.8333 143.5,60.5 Z"/></g>
<g><path style="opacity:1" fill="#052c36" d="M 242.5,66.5 C 242.611,67.1174 242.944,67.6174 243.5,68C 246.367,68.8007 249.034,68.6341 251.5,67.5C 252.167,67.5 252.833,67.5 253.5,67.5C 253.389,68.1174 253.056,68.6174 252.5,69C 249.854,69.4974 247.187,69.6641 244.5,69.5C 243.837,71.0419 243.17,72.7086 242.5,74.5C 241.817,74.8627 241.15,75.1961 240.5,75.5C 239.945,71.9878 240.612,68.9878 242.5,66.5 Z"/></g>
<g><path style="opacity:1" fill="#306465" d="M 239.5,65.5 C 240.791,65.2627 241.791,65.596 242.5,66.5C 240.612,68.9878 239.945,71.9878 240.5,75.5C 240.38,76.5862 239.713,77.2528 238.5,77.5C 237.584,77.4573 236.917,77.1239 236.5,76.5C 237.5,76.5 238.5,76.5 239.5,76.5C 239.5,72.8333 239.5,69.1667 239.5,65.5 Z"/></g>
<g><path style="opacity:1" fill="#101e38" d="M 143.5,60.5 C 143.5,60.8333 143.5,61.1667 143.5,61.5C 142.348,65.0535 142.515,68.7202 144,72.5C 147.665,73.9845 149.498,76.6512 149.5,80.5C 146.479,80.0969 143.979,78.7635 142,76.5C 138.997,76.743 137.83,78.4096 138.5,81.5C 136.833,81.5 135.167,81.5 133.5,81.5C 133.762,80.0222 133.429,78.6888 132.5,77.5C 126.35,73.979 119.683,72.6457 112.5,73.5C 112.5,72.1667 112.5,70.8333 112.5,69.5C 117.511,69.6659 122.511,69.4993 127.5,69C 129.347,65.8763 131.013,65.8763 132.5,69C 135.489,69.3304 138.322,70.1638 141,71.5C 141.5,71.3333 142,71.1667 142.5,71C 141.692,70.6924 141.025,70.1924 140.5,69.5C 140.768,66.0389 141.768,63.0389 143.5,60.5 Z"/></g>
<g><path style="opacity:1" fill="#599c98" d="M 239.5,65.5 C 239.5,69.1667 239.5,72.8333 239.5,76.5C 238.5,76.5 237.5,76.5 236.5,76.5C 236.5,75.5 236.5,74.5 236.5,73.5C 236.833,73.5 237.167,73.5 237.5,73.5C 238.167,70.8333 238.833,68.1667 239.5,65.5 Z"/></g>
</svg>
